<svg width="769" height="386" viewBox="0 0 769 386" fill="none" xmlns="http://www.w3.org/2000/svg">
<path d="M21.5576 163V45.4H76.6616C90.7736 45.4 101.526 48.2 108.918 53.8C116.31 59.288 120.006 66.68 120.006 75.976C120.006 82.248 118.55 87.624 115.638 92.104C112.726 96.472 108.806 99.888 103.878 102.352C99.0616 104.704 93.7976 105.88 88.0856 105.88L91.1096 99.832C97.7176 99.832 103.654 101.064 108.918 103.528C114.182 105.88 118.326 109.352 121.35 113.944C124.486 118.536 126.054 124.248 126.054 131.08C126.054 141.16 122.19 149 114.462 154.6C106.734 160.2 95.2536 163 80.0216 163H21.5576ZM43.3976 145.864H78.6776C86.8536 145.864 93.1256 144.52 97.4936 141.832C101.862 139.144 104.046 134.832 104.046 128.896C104.046 123.072 101.862 118.816 97.4936 116.128C93.1256 113.328 86.8536 111.928 78.6776 111.928H41.7176V94.96H74.3096C81.9256 94.96 87.7496 93.616 91.7816 90.928C95.9256 88.24 97.9976 84.208 97.9976 78.832C97.9976 73.344 95.9256 69.256 91.7816 66.568C87.7496 63.88 81.9256 62.536 74.3096 62.536H43.3976V145.864ZM149.362 163V45.4H197.746C208.162 45.4 217.066 47.08 224.458 50.44C231.962 53.8 237.73 58.616 241.762 64.888C245.794 71.16 247.81 78.608 247.81 87.232C247.81 95.856 245.794 103.304 241.762 109.576C237.73 115.736 231.962 120.496 224.458 123.856C217.066 127.104 208.162 128.728 197.746 128.728H161.458L171.202 118.816V163H149.362ZM226.306 163L196.57 120.328H219.922L249.826 163H226.306ZM171.202 121.168L161.458 110.752H196.738C206.37 110.752 213.594 108.68 218.41 104.536C223.338 100.392 225.802 94.624 225.802 87.232C225.802 79.728 223.338 73.96 218.41 69.928C213.594 65.896 206.37 63.88 196.738 63.88H161.458L171.202 53.128V121.168ZM292.405 94.288H350.869V112.264H292.405V94.288ZM294.085 144.688H360.445V163H272.245V45.4H358.093V63.712H294.085V144.688ZM384.792 163V45.4H402.768L476.52 135.952H467.616V45.4H489.288V163H471.312L397.56 72.448H406.464V163H384.792ZM520.8 163V45.4H572.208C584.976 45.4 596.176 47.864 605.808 52.792C615.44 57.72 622.944 64.552 628.32 73.288C633.696 82.024 636.384 92.328 636.384 104.2C636.384 115.96 633.696 126.264 628.32 135.112C622.944 143.848 615.44 150.68 605.808 155.608C596.176 160.536 584.976 163 572.208 163H520.8ZM542.64 144.52H571.2C580.048 144.52 587.664 142.84 594.048 139.48C600.544 136.12 605.528 131.416 609 125.368C612.584 119.32 614.376 112.264 614.376 104.2C614.376 96.024 612.584 88.968 609 83.032C605.528 76.984 600.544 72.28 594.048 68.92C587.664 65.56 580.048 63.88 571.2 63.88H542.64V144.52ZM641.324 163L694.244 45.4H715.748L768.836 163H745.988L700.46 56.992H709.196L663.836 163H641.324ZM665.684 135.784L671.564 118.648H735.068L740.948 135.784H665.684Z" fill="white"/>
<path d="M81.896 327.68C72.712 327.68 64.256 326.168 56.528 323.144C48.8 320.12 42.08 315.92 36.368 310.544C30.656 305.056 26.232 298.672 23.096 291.392C19.96 284 18.392 275.936 18.392 267.2C18.392 258.464 19.96 250.456 23.096 243.176C26.232 235.784 30.656 229.4 36.368 224.024C42.08 218.536 48.8 214.28 56.528 211.256C64.256 208.232 72.656 206.72 81.728 206.72C90.912 206.72 99.312 208.232 106.928 211.256C114.656 214.28 121.376 218.536 127.088 224.024C132.8 229.4 137.224 235.784 140.36 243.176C143.496 250.456 145.064 258.464 145.064 267.2C145.064 275.936 143.496 284 140.36 291.392C137.224 298.784 132.8 305.168 127.088 310.544C121.376 315.92 114.656 320.12 106.928 323.144C99.312 326.168 90.968 327.68 81.896 327.68ZM81.728 308.528C87.664 308.528 93.152 307.52 98.192 305.504C103.232 303.488 107.6 300.632 111.296 296.936C114.992 293.128 117.848 288.76 119.864 283.832C121.992 278.792 123.056 273.248 123.056 267.2C123.056 261.152 121.992 255.664 119.864 250.736C117.848 245.696 114.992 241.328 111.296 237.632C107.6 233.824 103.232 230.912 98.192 228.896C93.152 226.88 87.664 225.872 81.728 225.872C75.792 225.872 70.304 226.88 65.264 228.896C60.336 230.912 55.968 233.824 52.16 237.632C48.464 241.328 45.552 245.696 43.424 250.736C41.408 255.664 40.4 261.152 40.4 267.2C40.4 273.136 41.408 278.624 43.424 283.664C45.552 288.704 48.464 293.128 52.16 296.936C55.856 300.632 60.224 303.488 65.264 305.504C70.304 307.52 75.792 308.528 81.728 308.528ZM149.941 326L202.861 208.4H224.365L277.453 326H254.605L209.077 219.992H217.813L172.453 326H149.941ZM174.301 298.784L180.181 281.648H243.685L249.565 298.784H174.301ZM311.897 298.28L310.721 272.408L372.377 208.4H396.905L345.665 262.832L333.569 276.104L311.897 298.28ZM292.409 326V208.4H314.249V326H292.409ZM374.393 326L329.369 272.408L343.817 256.448L399.929 326H374.393Z" fill="white"/>
</svg>
